<?xml version="1.0" encoding="utf-8"?>
<!-- Generator: Adobe Illustrator 19.0.0, SVG Export Plug-In . SVG Version: 6.00 Build 0)  -->
<svg version="1.1" id="Layer_1" xmlns="http://www.w3.org/2000/svg" xmlns:xlink="http://www.w3.org/1999/xlink" x="0px" y="0px"
	 viewBox="0 0 30 30" style="enable-background:new 0 0 30 30;" xml:space="preserve">
<style type="text/css">
	.st0{fill:#434440;}
	.st1{fill:#08743B;}
</style>
<g>
	<path class="st0" d="M28.7,7.5l-5.5-6.3l-1.1-1.3H9.3c-1.7,0-3.1,1.4-3.1,3.1v4h1.9l0-3.2c0-1,0.8-1.8,1.8-1.8l11,0v5.2
		c0,1.9,1.6,3.5,3.5,3.5h3.8L28,25.9c0,1-0.8,1.8-1.8,1.8l-16.6,0c-0.9,0-1.6-0.9-1.6-1.9v-1.3H6.1v1.9c0,1.9,1.3,3.5,2.9,3.5
		l17.8,0c1.7,0,3.1-1.4,3.1-3.1V9L28.7,7.5"/>
	<path class="st1" d="M20.2,25.4H0V6.1h20.2V25.4 M1.9,23.4h16.3V8H1.9"/>
	<polyline class="st1" points="15.7,20.8 12.3,20.8 10,17.5 7.6,20.8 4.1,20.8 8.4,15.5 5,10.8 8.4,10.8 10,13.4 11.7,10.8 
		15.2,10.8 11.6,15.5 15.7,20.8 	"/>
</g>
</svg>
